<svg width="241" height="19" viewBox="0 0 241 19" fill="none" xmlns="http://www.w3.org/2000/svg">
<g id="Automattic svg" clip-path="url(#clip0_1_8889)">
<path id="Vector" d="M87.9383 18.7C81.8309 18.7 77.8693 14.3301 77.8693 9.7819V9.21819C77.8693 4.5929 81.8309 0.300049 87.9383 0.300049C94.0457 0.300049 98.0413 4.5929 98.0413 9.21819V9.7819C98.0413 14.3301 94.0797 18.7 87.9383 18.7ZM94.7739 9.26638C94.7739 5.95158 92.3465 3.00296 87.9383 3.00296C83.5301 3.00296 81.1415 5.9564 81.1415 9.26638V9.68072C81.1415 12.9955 83.5689 16.002 87.9383 16.002C92.3077 16.002 94.7739 12.9955 94.7739 9.68072V9.26638Z" fill="#3499CD"/>
<g id="Group">
<path id="Vector_2" d="M18.9365 18.0303L16.6595 13.7905H6.53229L4.31362 18.0303H0.915222L10.2366 0.916748H12.931L22.4077 18.0303H18.9365ZM11.5037 4.25563L7.75086 11.4537H15.3876L11.5037 4.25563Z" fill="#010101"/>
<path id="Vector_3" d="M37.1131 18.7C30.9231 18.7 28.049 15.3563 28.049 10.9141V0.916748H31.263V10.9623C31.263 14.1229 33.3603 16.002 37.3461 16.002C41.4387 16.002 43.1185 14.1229 43.1185 10.9623V0.916748H46.3567V10.8997C46.3567 15.154 43.638 18.7 37.1131 18.7Z" fill="#010101"/>
<path id="Vector_4" d="M64.3776 3.59075V18.0448H61.1394V3.59075H53.6047V0.916748H71.9124V3.59075H64.3776Z" fill="#010101"/>
<path id="Vector_5" d="M126.884 18.0303V4.4869L126.03 5.98048L118.806 18.0255H117.228L110.082 5.98048L109.227 4.4869V18.0303H106.067V0.916748H110.548L117.344 12.6582L118.15 14.1037L118.951 12.6582L125.685 0.916748H130.113V18.0303H126.884Z" fill="#010101"/>
<path id="Vector_6" d="M154.591 18.0303L152.309 13.7905H142.192L139.992 18.0303H136.594L145.915 0.916748H148.605L158.057 18.0303H154.591ZM147.158 4.25563L143.405 11.4537H151.042L147.158 4.25563Z" fill="#010101"/>
<path id="Vector_7" d="M171.107 3.59075V18.0448H167.874V3.59075H160.339V0.916748H178.642V3.59075H171.107Z" fill="#010101"/>
<path id="Vector_8" d="M194.852 3.59075V18.0448H191.614V3.59075H184.079V0.916748H202.392V3.59075H194.852Z" fill="#010101"/>
<path id="Vector_9" d="M210.364 18.0303V2.5356C211.655 2.5356 212.174 1.84181 212.174 0.916748H213.558V18.0303H210.364Z" fill="#010101"/>
<path id="Vector_10" d="M238.895 5.74922C237.037 3.99255 234.572 3.00819 232.006 2.99814C227.399 2.99814 224.806 6.13466 224.806 9.39646V9.7289C224.806 12.9666 227.423 15.9923 232.239 15.9923C234.759 15.9452 237.17 14.9638 238.997 13.2412L240.939 15.2696C238.517 17.5102 235.318 18.7387 232.006 18.7C225.481 18.7 221.52 14.4843 221.52 9.85899V9.29528C221.52 4.66999 225.845 0.300049 232.162 0.300049C235.812 0.300049 239.128 1.81772 240.9 3.71602L238.895 5.74922Z" fill="#010101"/>
<path id="Vector_11" d="M90.0747 6.25517C90.2166 6.34491 90.3389 6.462 90.4343 6.5995C90.5298 6.73699 90.5965 6.89211 90.6304 7.05564C90.6644 7.21918 90.6649 7.38781 90.632 7.55156C90.5991 7.71531 90.5334 7.87083 90.4388 8.00893L87.4871 12.5475C87.3982 12.6859 87.2828 12.8055 87.1473 12.8995C87.0118 12.9935 86.859 13.0601 86.6976 13.0955C86.5362 13.1308 86.3693 13.1343 86.2065 13.1055C86.0438 13.0768 85.8883 13.0165 85.749 12.9281C85.4692 12.746 85.2733 12.4613 85.2042 12.1364C85.1351 11.8114 85.1983 11.4725 85.3801 11.1936L88.3318 6.65506C88.5129 6.37609 88.7982 6.17983 89.1249 6.10938C89.4517 6.03892 89.7933 6.10002 90.0747 6.27926V6.25517Z" fill="#010101"/>
</g>
</g>
<defs>
<clipPath id="clip0_1_8889">
<rect width="240" height="18.4" fill="white" transform="translate(0.915222 0.300049)"/>
</clipPath>
</defs>
</svg>
